{
  "accessors": [
    {
      "bufferView": 2,
      "componentType": 5126,
      "count": 672,
      "max": [
        1.2929940223693848,
        3.6473000049591064,
        0.6842179894447327
      ],
      "min": [
        -1.2155630588531494,
        1.1168080568313599,
        -0.18092599511146545
      ],
      "type": "VEC3"
    },
    {
      "bufferView": 2,
      "byteOffset": 8064,
      "componentType": 5126,
      "count": 672,
      "max": [
        0.9966667294502258,
        0.9988657236099243,
        0.9884700775146484
      ],
      "min": [
        -0.9955281615257263,
        -0.9990937113761902,
        -0.9600214958190918
      ],
      "type": "VEC3"
    },
    {
      "bufferView": 3,
      "componentType": 5126,
      "count": 672,
      "max": [
        0.013343952596187592,
        0.8819671273231506,
        0.9999263882637024,
        1.0
      ],
      "min": [
        -0.4856173098087311,
        -0.08295096457004547,
        -0.6631061434745789,
        -1.0
      ],
      "type": "VEC4"
    },
    {
      "bufferView": 1,
      "componentType": 5126,
      "count": 672,
      "max": [
        0.9776999950408936,
        0.9907199740409851
      ],
      "min": [
        0.016735000535845757,
        0.017301000654697418
      ],
      "type": "VEC2"
    },
    {
      "bufferView": 0,
      "componentType": 5125,
      "count": 1728,
      "type": "SCALAR"
    },
    {
      "bufferView": 2,
      "byteOffset": 16128,
      "componentType": 5126,
      "count": 128,
      "max": [
        0.08868099749088287,
        2.5536000728607178,
        0.6540250182151794
      ],
      "min": [
        -0.15670600533485413,
        2.3084869384765625,
        0.6142870187759399
      ],
      "type": "VEC3"
    },
    {
      "bufferView": 2,
      "byteOffset": 17664,
      "componentType": 5126,
      "count": 128,
      "max": [
        0.2518105208873749,
        0.4163004457950592,
        0.988135576248169
      ],
      "min": [
        -0.3385041356086731,
        -0.16010259091854095,
        0.9061729907989502
      ],
      "type": "VEC3"
    },
    {
      "bufferView": 3,
      "byteOffset": 10752,
      "componentType": 5126,
      "count": 128,
      "max": [
        0.9999727010726929,
        0.08639868348836899,
        0.3353927731513977,
        1.0
      ],
      "min": [
        0.9409649968147278,
        -0.059421356767416,
        -0.2493811845779419,
        1.0
      ],
      "type": "VEC4"
    },
    {
      "bufferView": 1,
      "byteOffset": 5376,
      "componentType": 5126,
      "count": 128,
      "max": [
        0.0,
        0.0
      ],
      "min": [
        0.0,
        0.0
      ],
      "type": "VEC2"
    },
    {
      "bufferView": 0,
      "byteOffset": 6912,
      "componentType": 5125,
      "count": 192,
      "type": "SCALAR"
    },
    {
      "bufferView": 2,
      "byteOffset": 19200,
      "componentType": 5126,
      "count": 11374,
      "max": [
        1.381857991218567,
        3.7269630432128906,
        0.681846022605896
      ],
      "min": [
        -1.2876240015029907,
        1.0340319871902466,
        -0.2617799937725067
      ],
      "type": "VEC3"
    },
    {
      "bufferView": 2,
      "byteOffset": 155688,
      "componentType": 5126,
      "count": 11374,
      "max": [
        0.998627245426178,
        0.9998176693916321,
        0.999495804309845
      ],
      "min": [
        -0.9997989535331726,
        -0.9997051358222961,
        -0.9991311430931091
      ],
      "type": "VEC3"
    },
    {
      "bufferView": 3,
      "byteOffset": 12800,
      "componentType": 5126,
      "count": 11374,
      "max": [
        0.999999463558197,
        1.0,
        0.9999988079071045,
        1.0
      ],
      "min": [
        -1.0,
        -0.9999993443489075,
        -1.0,
        1.0
      ],
      "type": "VEC4"
    },
    {
      "bufferView": 1,
      "byteOffset": 6400,
      "componentType": 5126,
      "count": 11374,
      "max": [
        0.0,
        0.0
      ],
      "min": [
        0.0,
        0.0
      ],
      "type": "VEC2"
    },
    {
      "bufferView": 0,
      "byteOffset": 7680,
      "componentType": 5125,
      "count": 18990,
      "type": "SCALAR"
    }
  ],
  "asset": {
    "extras": {
      "author": "Daniel Skomorovsky (https://sketchfab.com/danielskom111)",
      "license": "CC-BY-4.0 (http://creativecommons.org/licenses/by/4.0/)",
      "source": "https://sketchfab.com/3d-models/futuristic-samurai-hat-5dc40453ea6b439aa21c5f4e52ffcf6f",
      "title": "Futuristic Samurai Hat"
    },
    "generator": "Sketchfab-15.32.0",
    "version": "2.0"
  },
  "bufferViews": [
    {
      "buffer": 0,
      "byteLength": 83640,
      "name": "floatBufferViews",
      "target": 34963
    },
    {
      "buffer": 0,
      "byteLength": 97392,
      "byteOffset": 83640,
      "byteStride": 8,
      "name": "floatBufferViews",
      "target": 34962
    },
    {
      "buffer": 0,
      "byteLength": 292176,
      "byteOffset": 181032,
      "byteStride": 12,
      "name": "floatBufferViews",
      "target": 34962
    },
    {
      "buffer": 0,
      "byteLength": 194784,
      "byteOffset": 473208,
      "byteStride": 16,
      "name": "floatBufferViews",
      "target": 34962
    }
  ],
  "buffers": [
    {
      "byteLength": 667992,
      "uri": "scene.bin"
    }
  ],
  "images": [
    {
      "uri": "textures/Worn_Herringbone_ugqiaajew_baseColor.png"
    },
    {
      "uri": "textures/Worn_Herringbone_ugqiaajew_metallicRoughness.png"
    },
    {
      "uri": "textures/Worn_Herringbone_ugqiaajew_normal.png"
    }
  ],
  "materials": [
    {
      "doubleSided": true,
      "name": "Worn_Herringbone_ugqiaajew",
      "normalTexture": {
        "index": 2
      },
      "pbrMetallicRoughness": {
        "baseColorTexture": {
          "index": 0
        },
        "metallicRoughnessTexture": {
          "index": 1
        }
      }
    },
    {
      "doubleSided": true,
      "name": "metal_dark",
      "normalTexture": {
        "index": 2
      },
      "pbrMetallicRoughness": {
        "baseColorTexture": {
          "index": 0
        },
        "metallicRoughnessTexture": {
          "index": 1
        }
      }
    }
  ],
  "meshes": [
    {
      "name": "Object_0",
      "primitives": [
        {
          "attributes": {
            "NORMAL": 1,
            "POSITION": 0,
            "TANGENT": 2,
            "TEXCOORD_0": 3
          },
          "indices": 4,
          "material": 0,
          "mode": 4
        }
      ]
    },
    {
      "name": "Object_1",
      "primitives": [
        {
          "attributes": {
            "NORMAL": 6,
            "POSITION": 5,
            "TANGENT": 7,
            "TEXCOORD_0": 8
          },
          "indices": 9,
          "material": 1,
          "mode": 4
        }
      ]
    },
    {
      "name": "Object_2",
      "primitives": [
        {
          "attributes": {
            "NORMAL": 11,
            "POSITION": 10,
            "TANGENT": 12,
            "TEXCOORD_0": 13
          },
          "indices": 14,
          "material": 1,
          "mode": 4
        }
      ]
    }
  ],
  "nodes": [
    {
      "children": [
        1
      ],
      "matrix": [
        1.0,
        0.0,
        0.0,
        0.0,
        0.0,
        2.220446049250313e-16,
        -1.0,
        0.0,
        0.0,
        1.0,
        2.220446049250313e-16,
        0.0,
        0.0,
        0.0,
        0.0,
        1.0
      ],
      "name": "Sketchfab_model"
    },
    {
      "children": [
        2,
        3,
        4
      ],
      "name": "Hat.obj.cleaner.materialmerger.gles"
    },
    {
      "mesh": 0,
      "name": "Object_2"
    },
    {
      "mesh": 1,
      "name": "Object_3"
    },
    {
      "mesh": 2,
      "name": "Object_4"
    }
  ],
  "samplers": [
    {
      "magFilter": 9729,
      "minFilter": 9987,
      "wrapS": 10497,
      "wrapT": 10497
    }
  ],
  "scene": 0,
  "scenes": [
    {
      "name": "Sketchfab_Scene",
      "nodes": [
        0
      ]
    }
  ],
  "textures": [
    {
      "sampler": 0,
      "source": 0
    },
    {
      "sampler": 0,
      "source": 1
    },
    {
      "sampler": 0,
      "source": 2
    }
  ]
}
