{
  "accessors": [
    {
      "bufferView": 2,
      "componentType": 5126,
      "count": 28994,
      "max": [
        10.460417747497559,
        11.001412391662598,
        6.369926929473877
      ],
      "min": [
        -10.460415840148926,
        -11.021278381347656,
        0.47949299216270447
      ],
      "type": "VEC3"
    },
    {
      "bufferView": 2,
      "byteOffset": 347928,
      "componentType": 5126,
      "count": 28994,
      "max": [
        0.9999979734420776,
        0.9995286464691162,
        1.0
      ],
      "min": [
        -0.9999979734420776,
        -0.9995284676551819,
        -1.0
      ],
      "type": "VEC3"
    },
    {
      "bufferView": 3,
      "componentType": 5126,
      "count": 28994,
      "max": [
        0.9999946355819702,
        0.9995273947715759,
        0.9993005990982056,
        1.0
      ],
      "min": [
        -0.9999998211860657,
        -0.9996554851531982,
        -0.9992991089820862,
        1.0
      ],
      "type": "VEC4"
    },
    {
      "bufferView": 1,
      "componentType": 5126,
      "count": 28994,
      "max": [
        0.9004020094871521,
        0.9910569787025452
      ],
      "min": [
        0.004734999965876341,
        0.012215999886393547
      ],
      "type": "VEC2"
    },
    {
      "bufferView": 0,
      "componentType": 5125,
      "count": 170496,
      "type": "SCALAR"
    }
  ],
  "asset": {
    "extras": {
      "author": "partha (https://sketchfab.com/partha1)",
      "license": "CC-BY-4.0 (http://creativecommons.org/licenses/by/4.0/)",
      "source": "https://sketchfab.com/3d-models/hat-partha-test-eb750a2d8f76475f94b4d9aa3092e9b9",
      "title": "Hat_Partha_Test"
    },
    "generator": "Sketchfab-12.68.0",
    "version": "2.0"
  },
  "bufferViews": [
    {
      "buffer": 0,
      "byteLength": 681984,
      "name": "floatBufferViews",
      "target": 34963
    },
    {
      "buffer": 0,
      "byteLength": 231952,
      "byteOffset": 681984,
      "byteStride": 8,
      "name": "floatBufferViews",
      "target": 34962
    },
    {
      "buffer": 0,
      "byteLength": 695856,
      "byteOffset": 913936,
      "byteStride": 12,
      "name": "floatBufferViews",
      "target": 34962
    },
    {
      "buffer": 0,
      "byteLength": 463904,
      "byteOffset": 1609792,
      "byteStride": 16,
      "name": "floatBufferViews",
      "target": 34962
    }
  ],
  "buffers": [
    {
      "byteLength": 2073696,
      "uri": "scene.bin"
    }
  ],
  "images": [
    {
      "uri": "textures/aiStandardSurface1_baseColor.jpeg"
    },
    {
      "uri": "textures/aiStandardSurface1_normal.png"
    }
  ],
  "materials": [
    {
      "doubleSided": true,
      "name": "aiStandardSurface1",
      "normalTexture": {
        "index": 1,
        "scale": 0.5671661528920344
      },
      "pbrMetallicRoughness": {
        "baseColorTexture": {
          "index": 0
        },
        "metallicFactor": 0.0
      }
    }
  ],
  "meshes": [
    {
      "name": "SunHat_aiStandardSurface1_0",
      "primitives": [
        {
          "attributes": {
            "NORMAL": 1,
            "POSITION": 0,
            "TANGENT": 2,
            "TEXCOORD_0": 3
          },
          "indices": 4,
          "material": 0,
          "mode": 4
        }
      ]
    }
  ],
  "nodes": [
    {
      "children": [
        1
      ],
      "matrix": [
        1.0,
        0.0,
        0.0,
        0.0,
        0.0,
        2.220446049250313e-16,
        -1.0,
        0.0,
        0.0,
        1.0,
        2.220446049250313e-16,
        0.0,
        0.0,
        0.0,
        0.0,
        1.0
      ],
      "name": "Sketchfab_model"
    },
    {
      "children": [
        2
      ],
      "matrix": [
        1.0,
        0.0,
        0.0,
        0.0,
        0.0,
        0.0,
        1.0,
        0.0,
        0.0,
        -1.0,
        0.0,
        0.0,
        0.0,
        0.0,
        0.0,
        1.0
      ],
      "name": "d7785d2e17b1447eaa89a4f9cb99407e.fbx"
    },
    {
      "children": [
        3
      ],
      "name": "RootNode"
    },
    {
      "children": [
        4
      ],
      "matrix": [
        1.0,
        0.0,
        0.0,
        0.0,
        0.0,
        0.0009134966216257645,
        -0.9999995827618741,
        0.0,
        0.0,
        0.9999995827618741,
        0.0009134966216257645,
        0.0,
        0.0,
        -0.34272605180740356,
        -0.0003130792174488306,
        1.0
      ],
      "name": "SunHat"
    },
    {
      "mesh": 0,
      "name": "SunHat_aiStandardSurface1_0"
    }
  ],
  "samplers": [
    {
      "magFilter": 9729,
      "minFilter": 9987,
      "wrapS": 10497,
      "wrapT": 10497
    }
  ],
  "scene": 0,
  "scenes": [
    {
      "name": "Sketchfab_Scene",
      "nodes": [
        0
      ]
    }
  ],
  "textures": [
    {
      "sampler": 0,
      "source": 0
    },
    {
      "sampler": 0,
      "source": 1
    }
  ]
}
